<?xml version="1.0" encoding="UTF-8"?>
<!DOCTYPE svg PUBLIC "-//W3C//DTD SVG 1.1//EN" "http://www.w3.org/Graphics/SVG/1.1/DTD/svg11.dtd">
<svg xmlns="http://www.w3.org/2000/svg" version="1.1" width="500px" height="500px" style="shape-rendering:geometricPrecision; text-rendering:geometricPrecision; image-rendering:optimizeQuality; fill-rule:evenodd; clip-rule:evenodd" xmlns:xlink="http://www.w3.org/1999/xlink">
<g><path style="opacity:1" fill="#fefefe" d="M -0.5,-0.5 C 166.167,-0.5 332.833,-0.5 499.5,-0.5C 499.5,166.167 499.5,332.833 499.5,499.5C 332.833,499.5 166.167,499.5 -0.5,499.5C -0.5,332.833 -0.5,166.167 -0.5,-0.5 Z"/></g>
<g><path style="opacity:1" fill="#bc0d09" d="M 176.5,129.5 C 204.702,126.868 219.368,139.702 220.5,168C 221.308,182.26 216.641,194.26 206.5,204C 187.164,215.187 170.664,212.021 157,194.5C 150.481,179.45 149.814,164.117 155,148.5C 159.56,139.1 166.727,132.767 176.5,129.5 Z"/></g>
<g><path style="opacity:1" fill="#bb0806" d="M 94.5,208.5 C 94.5,192.833 94.5,177.167 94.5,161.5C 88.5,161.5 82.5,161.5 76.5,161.5C 76.5,155.167 76.5,148.833 76.5,142.5C 82.2617,142.851 87.9284,142.351 93.5,141C 96.2679,138.131 98.2679,134.798 99.5,131C 104.823,130.501 110.156,130.334 115.5,130.5C 115.5,156.5 115.5,182.5 115.5,208.5C 108.5,208.5 101.5,208.5 94.5,208.5 Z"/></g>
<g><path style="opacity:1" fill="#fefbfb" d="M 182.5,148.5 C 190.933,147.629 196.1,151.295 198,159.5C 198.667,166.167 198.667,172.833 198,179.5C 195.433,189.7 189.267,192.867 179.5,189C 176.485,186.137 174.651,182.637 174,178.5C 173.333,172.167 173.333,165.833 174,159.5C 175.428,154.596 178.261,150.93 182.5,148.5 Z"/></g>
<g><path style="opacity:1" fill="#e29595" d="M 76.5,161.5 C 82.5,161.5 88.5,161.5 94.5,161.5C 94.5,177.167 94.5,192.833 94.5,208.5C 93.5038,193.342 93.1705,178.009 93.5,162.5C 87.642,162.822 81.9753,162.489 76.5,161.5 Z"/></g>
<g><path style="opacity:1" fill="#d97575" d="M 63.5,194.5 C 63.8315,203.525 63.4982,212.525 62.5,221.5C 61.8933,221.376 61.56,221.043 61.5,220.5C 62.1667,211.833 62.8333,203.167 63.5,194.5 Z"/></g>
<g><path style="opacity:1" fill="#bb0a07" d="M 63.5,194.5 C 70.5,194.5 77.5,194.5 84.5,194.5C 84.5,222.5 84.5,250.5 84.5,278.5C 79.1667,278.5 73.8333,278.5 68.5,278.5C 68.7093,276.286 67.876,274.619 66,273.5C 50.2557,283.91 35.589,282.577 22,269.5C 14.2306,256.857 13.5639,243.857 20,230.5C 31.1221,216.186 44.9554,212.852 61.5,220.5C 61.56,221.043 61.8933,221.376 62.5,221.5C 63.4982,212.525 63.8315,203.525 63.5,194.5 Z"/></g>
<g><path style="opacity:1" fill="#bb0807" d="M 223.5,194.5 C 230.833,194.5 238.167,194.5 245.5,194.5C 245.5,222.5 245.5,250.5 245.5,278.5C 238.167,278.5 230.833,278.5 223.5,278.5C 223.5,250.5 223.5,222.5 223.5,194.5 Z"/></g>
<g><path style="opacity:1" fill="#bc0e0a" d="M 283.5,194.5 C 290.833,194.5 298.167,194.5 305.5,194.5C 305.5,222.5 305.5,250.5 305.5,278.5C 298.167,278.5 290.833,278.5 283.5,278.5C 283.5,250.5 283.5,222.5 283.5,194.5 Z"/></g>
<g><path style="opacity:1" fill="#bb0c08" d="M 146.5,216.5 C 161.428,214.889 173.928,219.555 184,230.5C 189.999,242.488 189.999,254.488 184,266.5C 174.519,277.106 162.685,281.606 148.5,280C 126.422,276.035 116.922,262.868 120,240.5C 124.269,227.395 133.102,219.395 146.5,216.5 Z"/></g>
<g><path style="opacity:1" fill="#bc0c08" d="M 365.5,237.5 C 358.416,238.126 351.75,237.459 345.5,235.5C 347.447,226.714 352.78,220.88 361.5,218C 372.741,215.087 383.408,216.42 393.5,222C 398.295,225.755 401.462,230.588 403,236.5C 403.5,250.496 403.667,264.496 403.5,278.5C 398.125,278.828 392.792,278.495 387.5,277.5C 386.948,275.667 386.115,274 385,272.5C 373.845,280.357 362.012,281.523 349.5,276C 339.647,266.984 338.98,257.318 347.5,247C 349.888,245.139 352.554,243.806 355.5,243C 364.494,242.5 373.494,242.334 382.5,242.5C 382.235,234.018 377.901,230.851 369.5,233C 367.249,233.748 365.916,235.248 365.5,237.5 Z"/></g>
<g><path style="opacity:1" fill="#bc100a" d="M 440.5,218.5 C 445.844,218.334 451.177,218.501 456.5,219C 457.402,221.202 458.402,223.368 459.5,225.5C 462.157,222.353 465.49,220.186 469.5,219C 474.155,218.501 478.821,218.334 483.5,218.5C 483.5,225.167 483.5,231.833 483.5,238.5C 478.821,238.334 474.155,238.501 469.5,239C 467,240.167 465.167,242 464,244.5C 462.567,255.756 462.067,267.09 462.5,278.5C 455.167,278.5 447.833,278.5 440.5,278.5C 440.5,258.5 440.5,238.5 440.5,218.5 Z"/></g>
<g><path style="opacity:1" fill="#fdf9f8" d="M 46.5,234.5 C 61.9202,235.324 66.7535,242.991 61,257.5C 50.4115,265.61 42.4115,263.61 37,251.5C 36.0077,243.483 39.1744,237.816 46.5,234.5 Z"/></g>
<g><path style="opacity:1" fill="#fdf8f8" d="M 150.5,234.5 C 165.92,235.324 170.754,242.991 165,257.5C 154.412,265.61 146.412,263.61 141,251.5C 140.008,243.483 143.174,237.816 150.5,234.5 Z"/></g>
<g><path style="opacity:1" fill="#d15858" d="M 345.5,235.5 C 351.75,237.459 358.416,238.126 365.5,237.5C 358.687,238.491 351.687,238.825 344.5,238.5C 344.263,237.209 344.596,236.209 345.5,235.5 Z"/></g>
<g><path style="opacity:1" fill="#fdf8f8" d="M 366.5,254.5 C 371.833,254.5 377.167,254.5 382.5,254.5C 381.722,261.609 377.722,265.275 370.5,265.5C 362.938,263.995 361.605,260.328 366.5,254.5 Z"/></g>
</svg>
