<?xml version="1.0" encoding="UTF-8"?>
<svg version="1.1" viewBox="0 0 2000 2000" width="1280" height="1280" xmlns="http://www.w3.org/2000/svg">
<path transform="translate(0)" d="m0 0h2e3v2e3h-2e3z" fill="#FEFEFE"/>
<path transform="translate(596,859)" d="m0 0h44l2 3v198l-1 8-2 1-33-1-5-2-3-9-2-1-14 8-8 4-19 4h-19l-14-3-9-2-13-8-10-9-6-7-7-11-5-14-2-10-1-10v-12l2-13 4-13 7-13 11-12 7-7 14-8 16-4 6-1h19l19 4 9 5 4 2v-66z" fill="#C00F0E"/>
<path transform="translate(802,915)" d="m0 0h26l18 4 17 7 13 9 7 7 7 10 6 13 4 14 1 6v13l-2 14-4 13-5 10-8 10-9 9-12 8-15 6-16 4h-28l-17-3-15-5-13-8-11-10-11-16-5-14-2-9-1-9v-9l3-19 5-13 7-11 13-13 10-7 14-6 15-4z" fill="#C00F0E"/>
<path transform="translate(1343,915)" d="m0 0h25l17 3 16 6 9 6 8 8 8 14 4 10 1 12v93l-1 1h-34l-6-2-3-12-5 2-9 6-17 7-11 2h-25l-12-3-13-7-9-9-7-14-1-5v-17l4-13 8-11 9-7 13-5 21-2 44-1v-8l-4-9-9-4h-17l-8 6-3 6-25 1h-17l-9-1 1-8 5-13 7-11 8-8 10-6 16-5z" fill="#C00F0E"/>
<path transform="translate(848,730)" d="m0 0h11l13 2 12 5 9 6 8 9 6 10 3 8 3 21v15l-4 24-6 12-7 9-7 6-16 8-10 2h-17l-16-4-13-8-8-8-9-17-4-22v-20l3-16 4-11 7-11 9-9 10-6 8-3z" fill="#C00F0E"/>
<path transform="translate(1135,860)" d="m0 0h54v208l-2 1-52-1-1-2v-205z" fill="#C00F0E"/>
<path transform="translate(987,859)" d="m0 0h44l9 1v207l-1 1h-53l-1-2v-205z" fill="#C00F0E"/>
<path transform="translate(1523,919)" d="m0 0h40l3 9 3 7 5-5 8-5 9-4 15-2h24l-1 48-2 1-22 1-12 3-8 6-5 9-2 11-1 70h-54l-1-2v-146z" fill="#C00F0E"/>
<path transform="translate(709,733)" d="m0 0h27l1 5v120l-1 6h-37l-1-79-6 1h-22v-33l20-1 11-4z" fill="#C00F0E"/>
<path transform="translate(551,960)" d="m0 0h9l12 3 9 7 6 10 2 8v12l-3 10-6 8-6 5-9 3-5 1h-8l-9-2-8-5-7-7-4-8-1-3v-15l3-9 4-7 7-6 5-3z" fill="#FEFEFE"/>
<path transform="translate(810,960)" d="m0 0h9l12 4 7 5 7 11 2 10v8l-2 9-6 10-7 6-13 4h-8l-10-2-8-4-7-8-4-10-1-5v-9l2-9 6-10 5-4 10-5z" fill="#FEFEFE"/>
<path transform="translate(850,763)" d="m0 0 11 1 8 5 5 12 1 6v21l-2 12-6 10-11 4-10-2-7-6-4-10-2-12v-13l3-14 5-8 6-5z" fill="#FEFEFE"/>
<path transform="translate(1342,1009)" d="m0 0h36l1 3-5 12-4 2-2 4-5 3-9 2h-8l-9-2-5-6-1-7 5-8z" fill="#FEFEFE"/>
</svg>
